<?xml version="1.0" encoding="utf-8"?>
<!-- Generator: Adobe Illustrator 24.0.0, SVG Export Plug-In . SVG Version: 6.00 Build 0)  -->
<svg version="1.1" id="Layer_1" xmlns="http://www.w3.org/2000/svg" xmlns:xlink="http://www.w3.org/1999/xlink" x="0px" y="0px"
	 viewBox="0 0 2000 1000" style="enable-background:new 0 0 2000 1000;" xml:space="preserve">
<style type="text/css">
	.st0{fill:#D81919;}
	.st1{fill:#6B0000;}
	.st2{fill:#FFFFFF;}
	.st3{fill:#E52E2E;}
</style>
<rect x="500" y="-500" transform="matrix(6.123234e-17 -1 1 6.123234e-17 500 1500)" width="1000" height="2000"/>
<path class="st3" d="M539.48,493.95l82.47-82.47l-46.84-46.84c2.29-5.3,3.18-11.12,2.49-17.01c-2.14-18.21-18.82-31.34-36.9-29.15
	c-8.82,1.04-16.71,5.44-22.22,12.41c-5.51,6.97-7.97,15.68-6.93,24.49c1.02,8.82,5.44,16.71,12.41,22.22
	c5.92,4.69,13.1,7.18,20.56,7.18c1.3,0,2.61-0.08,3.93-0.24c3.63-0.43,7.09-1.45,10.31-2.97l29.91,29.91l-53.11,53.1v-57.85
	l-72.81-72.81l34.76-34.76c5.78,3,12.15,4.59,18.7,4.59c1.62,0,3.23-0.09,4.86-0.29c10.87-1.26,20.59-6.7,27.38-15.28
	c6.79-8.59,9.82-19.29,8.55-30.16v-0.01c-2.63-22.43-23.02-38.64-45.47-35.91c-22.41,2.64-38.52,23.03-35.9,45.46
	c0.63,5.46,2.32,10.63,4.93,15.28l-51.08,51.08l82.55,82.55v56.4l-22.92-22.93c1.9-4.89,2.68-10.29,2.02-15.85
	c-2.13-18.2-18.68-31.34-36.9-29.15c-18.21,2.14-31.29,18.7-29.16,36.9c1.98,16.91,16.39,29.39,33.02,29.39
	c1.29,0,2.58-0.07,3.88-0.22c2.85-0.33,5.55-1.06,8.11-2.05l24.99,24.99H539.48z M555.55,360.18c-2.31,2.93-5.63,4.79-9.34,5.23
	c-7.63,0.98-14.61-4.6-15.51-12.26c-0.43-3.7,0.6-7.35,2.91-10.28c2.31-2.93,5.63-4.79,9.34-5.23c0.55-0.07,1.09-0.09,1.63-0.09
	c6.99,0,13.04,5.25,13.88,12.36C558.9,353.6,557.86,357.25,555.55,360.18z M514.31,245.68c0.67-0.08,1.34-0.12,2.01-0.12
	c8.61,0,16.07,6.47,17.11,15.23c1.09,9.43-5.67,17.99-15.11,19.09c-4.6,0.53-9.06-0.75-12.67-3.58c-3.6-2.85-5.88-6.93-6.42-11.5
	C498.12,255.37,504.9,246.8,514.31,245.68z M459.75,451.87c-7.7,0.89-14.61-4.62-15.51-12.25c-0.9-7.65,4.6-14.61,12.24-15.52
	c0.54-0.07,1.09-0.09,1.63-0.09c6.99,0,13.05,5.25,13.89,12.36C472.9,444,467.4,450.96,459.75,451.87z"/>
<g>
	<path class="st2" d="M590.44,508.23v46.13h-17.1v-25H464.82v25h-17.1v-46.13H590.44z"/>
</g>
<g>
	<path class="st2" d="M594.52,601.78h-48.8c-12.06,0-17.82,4.11-18.37,18.92h-18.37c-0.55-13.98-6.31-18.92-18.37-18.92h-47.71
		c-32.63,0-43.32-15.08-43.32-42.5v-4.94h18.09v4.39c0,14.26,5.48,20.01,25.5,20.01h49.08c13.98,0,22.21,4.66,25.5,15.35h0.82
		c3.29-10.69,11.52-15.35,25.5-15.35h50.18c20.01,0,25.5-5.76,25.5-20.01v-4.39h18.92v4.94
		C638.66,586.7,627.15,601.78,594.52,601.78z"/>
</g>
<g>
	<path class="st2" d="M527.34,634.9h46.13V652h-25v108.52h25v17.1h-46.13V634.9z"/>
</g>
<g>
	<path class="st2" d="M508.98,777.62h-46.13v-17.1h25V652h-25v-17.1h46.13V777.62z"/>
</g>
<g>
	<path class="st2" d="M837.63,537.06h-51.45v94.9h-36.04v-94.9h-51.09v-28.83h138.58V537.06z"/>
	<path class="st2" d="M937.51,608.27h-67.87l-11.68,23.69h-37.81l63.97-123.73h39.41l64,123.73h-38.34L937.51,608.27z
		 M924.96,582.64l-21.39-43.81l-21.56,43.81H924.96z"/>
	<path class="st2" d="M1105.92,631.96l-32.7-39.08h-36.41v39.08h-35.91V508.23h86.79c31.63,0,56.23,13.98,56.23,42.25
		c0,20.69-13.08,33.77-32.53,39.41l36.41,42.08H1105.92z M1085.06,566.72c12.88,0,22.26-3.5,22.26-15.55
		c0-12.01-9.38-15.55-22.26-15.55h-48.45v31.1H1085.06z"/>
	<path class="st2" d="M1290.78,537.06h-51.45v94.9h-36.04v-94.9h-51.09v-28.83h138.58V537.06z"/>
	<path class="st2" d="M1390.66,608.27h-67.87l-11.68,23.69h-37.81l63.97-123.73h39.41l64,123.73h-38.34L1390.66,608.27z
		 M1378.11,582.64l-21.39-43.81l-21.56,43.81H1378.11z"/>
	<path class="st2" d="M1600.41,508.23v123.73h-31.63l-79.89-81.32v81.32h-34.84V508.23h38.17l73.38,75.65v-75.65H1600.41z"/>
</g>
<g>
	<path class="st2" d="M894.23,654.82v121.8h-35.48v-47.14h-73.09v47.14h-35.51v-121.8h35.51v45.43h73.09v-45.43H894.23z"/>
	<path class="st2" d="M1023.12,753.3h-66.81l-11.5,23.32H907.6l62.97-121.8h38.79l63,121.8h-37.74L1023.12,753.3z M1010.77,728.07
		l-21.06-43.13l-21.22,43.13H1010.77z"/>
	<path class="st2" d="M1186.11,733.13l30.45,15.67c-11.3,17.9-35.84,31.83-68.72,31.83c-45.95,0-76.93-23.85-76.93-64.91
		c0-41.06,30.98-64.91,78.31-64.91c31.5,0,55.84,14.29,66.81,31.67l-30.61,15.67c-8.01-12.52-20.37-18.43-36.72-18.43
		c-25.06,0-41.75,12.68-41.75,36c0,23.32,16.69,36.03,41.75,36.03C1165.06,751.76,1177.57,746.17,1186.11,733.13z"/>
	<path class="st2" d="M1337.31,776.62l-40.9-52.36l-26.97,24.01v28.35h-35.51v-121.8h35.51v56.37l62.28-56.37h44.21l-54.13,48.55
		l57.25,73.25H1337.31z"/>
	<path class="st2" d="M1520.51,738.52c0,25.06-23.12,42.11-67.34,42.11c-31.3,0-57.58-8.54-76.73-23.85l18.62-21.91
		c14.45,12.19,34.46,18.95,58.83,18.95c20.86,0,31.3-3.81,31.3-11.83c0-7.82-9.76-10.45-34.79-12.52
		c-36.2-3.15-69.08-11.14-69.08-38.3c0-26.08,28.18-40.37,66.81-40.37c26.08,0,50.09,6.27,66.81,18.1l-17.93,22.11
		c-13.57-9.56-29.92-13.4-48.88-13.57c-14.29,0-31.5,2.27-31.5,10.94c0,8.18,14.09,9.23,35.84,10.97
		C1492.32,702.68,1520.51,710.5,1520.51,738.52z"/>
</g>
</svg>
