<?xml version="1.0" encoding="utf-8"?>
<!-- Generator: Adobe Illustrator 23.0.3, SVG Export Plug-In . SVG Version: 6.00 Build 0)  -->
<svg version="1.1" id="Layer_1" xmlns="http://www.w3.org/2000/svg" xmlns:xlink="http://www.w3.org/1999/xlink" x="0px" y="0px"
	 viewBox="0 0 1000 1000" style="enable-background:new 0 0 1000 1000;" xml:space="preserve">
<style type="text/css">
	.st0{fill:#D81919;}
	.st1{fill:#FFFFFF;}
</style>
<path class="st0" d="M517.8,377.1l64.3-64.3l-36.5-36.5c1.8-4.1,2.5-8.7,1.9-13.3c-1.7-14.2-14.7-24.4-28.8-22.7
	c-6.9,0.8-13,4.2-17.3,9.7c-4.3,5.4-6.2,12.2-5.4,19.1c0.8,6.9,4.2,13,9.7,17.3c4.6,3.7,10.2,5.6,16,5.6c1,0,2-0.1,3.1-0.2
	c2.8-0.3,5.5-1.1,8-2.3l23.3,23.3l-41.4,41.4v-45.1l-56.8-56.8l27.1-27.1c4.5,2.3,9.5,3.6,14.6,3.6c1.3,0,2.5-0.1,3.8-0.2
	c8.5-1,16.1-5.2,21.3-11.9s7.7-15,6.7-23.5v0c-2-17.5-18-30.1-35.5-28c-17.5,2.1-30,18-28,35.4c0.5,4.3,1.8,8.3,3.9,11.9L432,252.3
	l64.4,64.4v44l-17.9-17.9c1.5-3.8,2.1-8,1.6-12.4c-1.7-14.2-14.6-24.4-28.8-22.7c-14.2,1.7-24.4,14.6-22.7,28.8
	c1.5,13.2,12.8,22.9,25.8,22.9c1,0,2,0,3-0.2c2.2-0.3,4.3-0.8,6.3-1.6l19.5,19.5L517.8,377.1L517.8,377.1z M530.3,272.8
	c-1.8,2.3-4.4,3.7-7.3,4.1c-6,0.8-11.4-3.6-12.1-9.6c-0.3-2.9,0.5-5.7,2.3-8c1.8-2.3,4.4-3.7,7.3-4.1c0.4-0.1,0.8-0.1,1.3-0.1
	c5.5,0,10.2,4.1,10.8,9.6C532.9,267.6,532.1,270.5,530.3,272.8z M498.1,183.5c0.5-0.1,1-0.1,1.6-0.1c6.7,0,12.5,5.1,13.3,11.9
	c0.8,7.4-4.4,14-11.8,14.9c-3.6,0.4-7.1-0.6-9.9-2.8s-4.6-5.4-5-9C485.5,191,490.8,184.4,498.1,183.5z M455.6,344.3
	c-6,0.7-11.4-3.6-12.1-9.5c-0.7-6,3.6-11.4,9.5-12.1c0.4,0,0.9-0.1,1.3-0.1c5.5,0,10.2,4.1,10.8,9.6
	C465.8,338.1,461.5,343.6,455.6,344.3z"/>
<g>
	<path class="st1" d="M557.5,388.2v36h-13.3v-19.5h-84.6v19.5h-13.3v-36H557.5z"/>
</g>
<g>
	<path class="st1" d="M560.7,461.2h-38.1c-9.4,0-13.9,3.2-14.3,14.8H494c-0.4-10.9-4.9-14.8-14.3-14.8h-37.2
		c-25.4,0-33.8-11.8-33.8-33.1v-3.9h14.1v3.4c0,11.1,4.3,15.6,19.9,15.6h38.3c10.9,0,17.3,3.6,19.9,12h0.6c2.6-8.3,9-12,19.9-12
		h39.1c15.6,0,19.9-4.5,19.9-15.6v-3.4h14.8v3.9C595.1,449.4,586.1,461.2,560.7,461.2z"/>
</g>
<g>
	<path class="st1" d="M508.3,487h36v13.3h-19.5V585h19.5v13.3h-36V487z"/>
</g>
<g>
	<path class="st1" d="M494,598.3h-36V585h19.5v-84.6H458V487h36V598.3z"/>
</g>
<g>
	<path class="st1" d="M307.6,677.2h-31.7v58.5h-22.2v-58.5h-31.5v-17.8h85.4V677.2z"/>
	<path class="st1" d="M369.1,721.1h-41.9l-7.2,14.6h-23.3l39.4-76.3h24.3l39.5,76.3h-23.6L369.1,721.1z M361.4,705.3l-13.2-27
		l-13.3,27H361.4z"/>
	<path class="st1" d="M473,735.7l-20.2-24.1h-22.5v24.1h-22.1v-76.3h53.5c19.5,0,34.7,8.6,34.7,26c0,12.8-8.1,20.8-20.1,24.3
		l22.5,25.9L473,735.7L473,735.7z M460.1,695.5c7.9,0,13.7-2.2,13.7-9.6c0-7.4-5.8-9.6-13.7-9.6h-29.9v19.2L460.1,695.5L460.1,695.5
		z"/>
	<path class="st1" d="M587,677.2h-31.7v58.5H533v-58.5h-31.5v-17.8H587L587,677.2L587,677.2z"/>
	<path class="st1" d="M648.5,721.1h-41.8l-7.2,14.6h-23.3l39.4-76.3h24.3l39.5,76.3h-23.6L648.5,721.1z M640.8,705.3l-13.2-27
		l-13.3,27H640.8z"/>
	<path class="st1" d="M777.9,659.4v76.3h-19.5l-49.3-50.1v50.1h-21.5v-76.3h23.5l45.2,46.6v-46.6H777.9z"/>
</g>
<g>
	<path class="st1" d="M362.3,749.8v75.1h-21.9v-29.1h-45.1v29.1h-21.9v-75.1h21.9v28h45.1v-28H362.3z"/>
	<path class="st1" d="M441.7,810.5h-41.2l-7.1,14.4h-23l38.8-75.1h23.9l38.8,75.1h-23.3L441.7,810.5z M434.1,795l-13-26.6L408.1,795
		H434.1z"/>
	<path class="st1" d="M542.2,798.1l18.8,9.7c-7,11-22.1,19.6-42.4,19.6c-28.3,0-47.4-14.7-47.4-40s19.1-40,48.3-40
		c19.4,0,34.4,8.8,41.2,19.5l-18.9,9.7c-4.9-7.7-12.6-11.4-22.6-11.4c-15.5,0-25.7,7.8-25.7,22.2s10.3,22.2,25.7,22.2
		C529.2,809.5,537,806.1,542.2,798.1z"/>
	<path class="st1" d="M635.4,824.9l-25.2-32.3l-16.6,14.8v17.5h-21.9v-75.1h21.9v34.8l38.4-34.8h27.3l-33.4,29.9l35.3,45.2
		L635.4,824.9L635.4,824.9z"/>
	<path class="st1" d="M748.4,801.4c0,15.5-14.3,26-41.5,26c-19.3,0-35.5-5.3-47.3-14.7l11.5-13.5c8.9,7.5,21.2,11.7,36.3,11.7
		c12.9,0,19.3-2.3,19.3-7.3c0-4.8-6-6.4-21.5-7.7c-22.3-1.9-42.6-6.9-42.6-23.6c0-16.1,17.4-24.9,41.2-24.9
		c16.1,0,30.9,3.9,41.2,11.2l-11.1,13.6c-8.4-5.9-18.5-8.3-30.1-8.4c-8.8,0-19.4,1.4-19.4,6.7c0,5,8.7,5.7,22.1,6.8
		C731,779.3,748.4,784.1,748.4,801.4z"/>
</g>
</svg>
